# xmcd
# 
# Track frame offsets:
#     150
#     17619
#     36112
#     52071
#     65023
#     81540
#     102232
#     115463
#     129720
#     145657
#     160164
#     174202
# 
# Disc length: 2669
# 
# Revision: 4
# Processed by: cddbd v1.5.2PL0 Copyright (c) Steve Scherf et al.
# Submitted via: BonkEnc v1.0.8
# 
DISCID=a50a6b0c
DTITLE=The New Pornographers - Together
DYEAR=2010
DGENRE=Rock
TTITLE0=Moves
TTITLE1=Crash Years
TTITLE2=Your Hands (Together)
TTITLE3=Silver Jenny Dollar
TTITLE4=Sweet Talk, Sweet Talk
TTITLE5=My Shepherd
TTITLE6=If You Can't See My Mirrors
TTITLE7=Up in the Dark
TTITLE8=Valkyrie in the Roller Disco
TTITLE9=A Bite Out of My Bed
TTITLE10=Daughters of Sorrow
TTITLE11=We End Up Together
EXTD=
EXTT0=
EXTT1=
EXTT2=
EXTT3=
EXTT4=
EXTT5=
EXTT6=
EXTT7=
EXTT8=
EXTT9=
EXTT10=
EXTT11=
PLAYORDER=
